# xmcd
#
# Track frame offsets: 
#        150
#        16316
#        33201
#        50088
#        65227
#        82520
#
# Disc length: 1342 seconds
#
# Revision: 0
# Processed by: cddbd v1.5.2PL0 Copyright (c) Steve Scherf et al.
# Submitted via: ExactAudioCopy v1.0b1
#
DISCID=42053c06
DTITLE=Due West - Forget the Miles
DYEAR=2011
DGENRE=Country
TTITLE0=22 Hours a Day
TTITLE1=Country Music Made a Man Out of Me
TTITLE2=When the Smoke Clears
TTITLE3=Bible and the Belt
TTITLE4=Try Living in a Small Town
TTITLE5=I Get That All the time
EXTD=
EXTT0=
EXTT1=
EXTT2=
EXTT3=
EXTT4=
EXTT5=
PLAYORDER=
